<svg xmlns="http://www.w3.org/2000/svg" viewBox="0 0 512 512" width="512" height="512">
  <!-- Background Circle -->
  <circle cx="256" cy="256" r="256" fill="#3498db" />
  
  <!-- Card Shape -->
  <rect x="128" y="128" width="256" height="320" rx="16" ry="16" fill="white" />
  
  <!-- Header Bar -->
  <rect x="128" y="128" width="256" height="48" rx="16" ry="16" fill="#2980b9" />
  
  <!-- User Icon -->
  <circle cx="256" cy="224" r="48" fill="#ecf0f1" stroke="#bdc3c7" stroke-width="4" />
  <circle cx="256" cy="200" r="24" fill="#bdc3c7" />
  <path d="M208 248 A 48 48 0 0 0 304 248" fill="#bdc3c7" />
  
  <!-- Text Lines -->
  <rect x="160" y="288" width="192" height="8" rx="4" ry="4" fill="#ecf0f1" />
  <rect x="160" y="312" width="192" height="8" rx="4" ry="4" fill="#ecf0f1" />
  <rect x="160" y="336" width="192" height="8" rx="4" ry="4" fill="#ecf0f1" />
  <rect x="160" y="360" width="128" height="8" rx="4" ry="4" fill="#ecf0f1" />
  
  <!-- Camera Icon -->
  <circle cx="352" cy="400" r="32" fill="#2ecc71" />
  <rect x="336" y="392" width="32" height="16" rx="4" ry="4" fill="white" />
  <circle cx="352" cy="400" r="8" fill="white" stroke="#2ecc71" stroke-width="2" />
</svg>